<?xml version="1.0" standalone="no"?>
<!DOCTYPE svg PUBLIC "-//W3C//DTD SVG 20010904//EN"
 "http://www.w3.org/TR/2001/REC-SVG-20010904/DTD/svg10.dtd">
<svg version="1.0" xmlns="http://www.w3.org/2000/svg"
 width="196.000000pt" height="200.000000pt" viewBox="0 0 196.000000 200.000000"
 preserveAspectRatio="xMidYMid meet">
<metadata>
Created by potrace 1.16, written by Peter Selinger 2001-2019
</metadata>
<g transform="translate(0.000000,200.000000) scale(0.100000,-0.100000)"
fill="#000000" stroke="none">
<path d="M795 1875 c-38 -9 -108 -34 -155 -57 -157 -76 -292 -239 -334 -404
-25 -96 -19 -104 21 -35 46 79 172 214 261 280 140 105 296 160 482 170 l115
7 -70 22 c-92 30 -226 37 -320 17z"/>
<path d="M1457 1620 c21 -80 12 -159 -28 -237 -64 -126 -230 -275 -393 -352
-91 -44 -253 -101 -285 -101 -42 0 -12 -38 52 -65 47 -20 177 -20 290 0 123
21 305 84 450 153 l124 61 6 40 c6 50 -7 174 -27 240 -24 83 -84 187 -146 253
l-58 63 15 -55z"/>
<path d="M905 1513 c-82 -43 -198 -196 -229 -302 -14 -48 -22 -141 -12 -141
15 0 113 50 168 87 75 49 177 155 203 210 45 94 20 163 -58 163 -23 -1 -55 -8
-72 -17z"/>
<path d="M1521 785 c-186 -127 -447 -220 -687 -243 l-79 -8 55 -17 c131 -40
260 -40 385 -1 119 38 249 123 316 206 39 47 82 108 77 107 -2 0 -32 -20 -67
-44z"/>
</g>
</svg>
